<svg width="32" height="24" viewBox="0 0 32 24" fill="none" xmlns="http://www.w3.org/2000/svg">
<path d="M0 2.72348V1.93103C0 1.41889 0.210714 0.927726 0.585786 0.565587C0.960859 0.203448 1.46957 0 2 0L30 0C30.5304 0 31.0391 0.203448 31.4142 0.565587C31.7893 0.927726 32 1.41889 32 1.93103V2.72348L16 12.3787L0 2.72348ZM16.53 14.3362C16.371 14.432 16.1874 14.4828 16 14.4828C15.8126 14.4828 15.629 14.432 15.47 14.3362L0 5.00065V21.2414C0 21.7535 0.210714 22.2447 0.585786 22.6068C0.960859 22.969 1.46957 23.1724 2 23.1724H30C30.5304 23.1724 31.0391 22.969 31.4142 22.6068C31.7893 22.2447 32 21.7535 32 21.2414V5.00065L16.53 14.3362Z" fill="url(#paint0_linear_113_448)"/>
<defs>
<linearGradient id="paint0_linear_113_448" x1="16" y1="0" x2="16" y2="23.1724" gradientUnits="userSpaceOnUse">
<stop stop-color="#00E0FF"/>
<stop offset="1" stop-color="#581EFF"/>
</linearGradient>
</defs>
</svg>
