<svg width="32" height="31" viewBox="0 0 32 31" fill="none" xmlns="http://www.w3.org/2000/svg">
<path d="M23.3199 9.81624C24.3013 8.67131 25.2756 5.99982 21.1864 9.24378C17.3664 12.3108 13.5206 15.3336 9.64943 18.3119C9.05994 18.6229 8.42265 18.7916 7.77585 18.808C7.12905 18.8244 6.48608 18.6881 5.88557 18.4073C3.43203 17.5486 0.567796 16.4037 0.567796 16.4037C0.567796 16.4037 -1.38792 14.9705 1.95991 13.4439C1.95991 13.4439 16.114 6.6677 21.0228 4.28036C22.9038 3.32626 29.2848 0.273127 29.2848 0.273127C29.2848 0.273127 32.2308 -1.06469 31.9855 2.18133C31.9037 3.51708 31.2494 8.19634 30.5951 13.2531C29.612 20.4109 28.5488 28.2387 28.5488 28.2387C28.5488 28.2387 28.3852 30.4332 26.9949 30.8148C25.5065 30.7854 24.0685 30.1815 22.9056 29.0974C22.5785 28.8112 16.77 24.5157 14.6418 22.4166C14.4254 22.2455 14.2495 22.0134 14.1306 21.7417C14.0117 21.47 13.9536 21.1677 13.9618 20.8628C13.9699 20.5579 14.044 20.2603 14.1773 19.9978C14.3105 19.7353 14.4984 19.5164 14.7236 19.3614C17.6425 16.2459 20.5085 13.0636 23.3199 9.81624Z" fill="url(#paint0_linear_113_457)"/>
<defs>
<linearGradient id="paint0_linear_113_457" x1="16" y1="0" x2="16" y2="30.8148" gradientUnits="userSpaceOnUse">
<stop stop-color="#00E0FF"/>
<stop offset="1" stop-color="#581EFF"/>
</linearGradient>
</defs>
</svg>
